<mxfile host="app.diagrams.net" modified="2024-03-27T02:52:30.811Z" agent="Mozilla/5.0 (Macintosh; Intel Mac OS X 10_15_7) AppleWebKit/537.36 (KHTML, like Gecko) Chrome/121.0.0.0 Safari/537.36" version="24.2.0" etag="cGARZl2d9543fCxuO6i7" type="github">
  <diagram name="第 1 页" id="emHRkCAWvy8TYnxt31GF">
    <mxGraphModel>
      <root>
        <mxCell id="0" />
        <mxCell id="1" parent="0" />
      </root>
    </mxGraphModel>
  </diagram>
</mxfile>
